<svg xmlns="http://www.w3.org/2000/svg" width="512" height="512" viewBox="0 0 512 512">
  <defs>
    <linearGradient id="g" x1="0" y1="0" x2="1" y2="1">
      <stop offset="0%" stop-color="#e2683b"/>
      <stop offset="100%" stop-color="#2c8c7c"/>
    </linearGradient>
  </defs>
  <rect width="512" height="512" rx="96" fill="url(#g)"/>
  <path d="M156 256c0-55.2 44.8-100 100-100s100 44.8 100 100-44.8 100-100 100-100-44.8-100-100z" fill="#ffffff" opacity="0.92"/>
  <path d="M256 166c49.7 0 90 40.3 90 90s-40.3 90-90 90-90-40.3-90-90 40.3-90 90-90m0-30c-66.2 0-120 53.8-120 120s53.8 120 120 120 120-53.8 120-120-53.8-120-120-120z" fill="#1c2a2e" opacity="0.2"/>
</svg>
